# File created by Blade
# Date/Time:  Thu Sep 25 19:43:58 2014
# Frame Rate: 120.000 fps
#------------------------------------------------------
:FULLY-SPECIFIED
:DEGREES
480
root 3.327004 13.258991 -9.297369 14.768052 16.192070 -19.331043
Spine 4.587715 -6.644735 -40.773122
Head -0.868247 -6.138937 -39.748093
LeftShoulder -6.748984 16.534851 18.401171
LeftArm 15.371352 -12.148054 -57.786634
LeftForeArm 36.184523 -0.000000 19.496952
LeftHand -34.277529 -0.000000 107.672528
LeftHandThumb1 -26.253704 0.000000 33.147579
RightShoulder -19.565195 25.720377 -55.022734
RightArm 1.855722 35.021178 8.401404
RightForeArm 36.609966 -0.000000 20.506416
RightHand 6.636100 0.000000 -16.352418
RightHandThumb1 -24.326973 -0.000000 -32.862282
LeftUpLeg -115.182507 45.913782 16.716580
LeftLeg 127.717055 -0.000000 -0.000000
LeftFoot -28.785731 -18.739464 -15.114276
LeftToeBase 1.424476 -0.000000 -0.000000
RightUpLeg -5.696067 -23.477403 -42.461876
RightLeg 9.424778 -0.000000 -0.000000
RightFoot 5.622303 -19.435904 3.457385
RightToeBase 8.070020 -0.000000 -0.000000
481
root 3.328842 13.262426 -9.275937 14.547000 16.124579 -19.410669
Spine 4.431999 -6.798532 -40.723183
Head -0.674472 -5.534461 -40.221544
LeftShoulder -6.691638 16.450425 18.583296
LeftArm 15.218695 -11.567523 -57.667363
LeftForeArm 35.518016 -0.000000 18.644221
LeftHand -34.303483 0.000000 107.911086
LeftHandThumb1 -26.253704 0.000000 33.147579
RightShoulder -19.760760 25.875172 -55.181891
RightArm 2.794014 35.253689 8.198434
RightForeArm 36.984362 -0.000000 20.583499
RightHand 6.844090 0.000000 -15.858729
RightHandThumb1 -24.326973 -0.000000 -32.862282
LeftUpLeg -114.769539 45.967129 17.096659
LeftLeg 127.758136 -0.000000 -0.000000
LeftFoot -28.827324 -18.761838 -15.130363
LeftToeBase 1.423893 -0.000000 -0.000000
RightUpLeg -5.572973 -23.365623 -42.424958
RightLeg 9.415411 -0.000000 -0.000000
RightFoot 5.616751 -19.344125 3.310167
RightToeBase 8.075912 -0.000000 -0.000000
482
root 3.329597 13.267699 -9.252354 14.314817 16.035575 -19.508202
Spine 4.265520 -6.941474 -40.685808
Head -0.472490 -4.953573 -40.629223
LeftShoulder -6.748853 16.517928 18.706160
LeftArm 15.275311 -11.118917 -57.586468
LeftForeArm 35.011082 -0.000000 17.824209
LeftHand -34.422731 -0.000000 108.132821
LeftHandThumb1 -26.253704 0.000000 33.147579
RightShoulder -19.911869 26.037852 -55.301899
RightArm 3.691020 35.600583 8.013831
RightForeArm 37.246100 -0.000000 20.726527
RightHand 6.981874 -0.000000 -15.291241
RightHandThumb1 -24.326973 -0.000000 -32.862282
LeftUpLeg -114.347156 46.060588 17.481443
LeftLeg 127.797147 -0.000000 -0.000000
LeftFoot -28.857593 -18.782970 -15.124743
LeftToeBase 1.437756 -0.000000 -0.000000
RightUpLeg -5.457761 -23.189809 -42.363632
RightLeg 9.401506 -0.000000 -0.000000
RightFoot 5.608357 -19.315313 3.088068
RightToeBase 8.045435 -0.000000 -0.000000
483
root 3.329628 13.272308 -9.230496 14.108482 15.957152 -19.616691
Spine 4.047688 -7.073335 -40.629312
Head -0.171436 -4.372185 -41.034425
LeftShoulder -6.723644 16.280227 18.867241
LeftArm 14.970800 -10.648546 -57.509527
LeftForeArm 34.650059 -0.000000 17.180533
LeftHand -34.481157 -0.000000 108.244000
LeftHandThumb1 -26.253704 0.000000 33.147579
RightShoulder -20.033750 26.142380 -55.428805
RightArm 4.583704 36.035962 7.886490
RightForeArm 37.392623 -0.000000 20.907940
RightHand 6.947264 0.000000 -14.804266
RightHandThumb1 -24.326973 -0.000000 -32.862282
LeftUpLeg -113.982230 46.150949 17.834802
LeftLeg 127.829858 -0.000000 -0.000000
LeftFoot -28.900372 -18.789750 -15.113128
LeftToeBase 1.472063 -0.000000 -0.000000
RightUpLeg -5.360510 -23.007182 -42.284549
RightLeg 9.393319 -0.000000 -0.000000
RightFoot 5.572882 -19.296288 2.967167
RightToeBase 8.031878 -0.000000 -0.000000
484
root 3.329255 13.277132 -9.209954 13.897827 15.883008 -19.739522
Spine 3.856296 -7.180480 -40.554756
Head 0.057112 -3.822999 -41.383877
LeftShoulder -6.753480 16.190225 18.936138
LeftArm 14.795493 -10.375301 -57.461100
LeftForeArm 34.442320 -0.000000 16.726153
LeftHand -34.535713 -0.000000 108.321688
LeftHandThumb1 -26.253704 0.000000 33.147579
RightShoulder -20.220962 26.266954 -55.623674
RightArm 5.487371 36.393870 7.833719
RightForeArm 37.549058 0.000000 21.089128
RightHand 6.882762 -0.000000 -14.458228
RightHandThumb1 -24.326973 -0.000000 -32.862282
LeftUpLeg -113.633286 46.240839 18.192114
LeftLeg 127.859468 -0.000000 -0.000000
LeftFoot -28.918541 -18.782081 -15.088105
LeftToeBase 1.389157 -0.000000 -0.000000
RightUpLeg -5.262074 -22.795609 -42.191461
RightLeg 9.378837 -0.000000 -0.000000
RightFoot 5.555989 -19.299140 2.830346
RightToeBase 8.017799 -0.000000 -0.000000
485
root 3.328429 13.282074 -9.189368 13.687916 15.809393 -19.843348
Spine 3.690992 -7.327064 -40.506898
Head 0.163079 -3.273923 -41.758361
LeftShoulder -6.853291 16.184982 18.932771
LeftArm 14.635896 -10.310388 -57.431871
LeftForeArm 34.441367 -0.000000 16.439965
LeftHand -34.546720 -0.000000 108.331521
LeftHandThumb1 -26.253704 0.000000 33.147579
RightShoulder -20.426081 26.452332 -55.878368
RightArm 6.414590 36.735406 7.873891
RightForeArm 37.697827 -0.000000 21.257462
RightHand 6.774770 0.000000 -14.123051
RightHandThumb1 -24.326973 -0.000000 -32.862282
LeftUpLeg -113.278331 46.323288 18.527518
LeftLeg 127.889425 -0.000000 -0.000000
LeftFoot -28.964725 -18.784722 -15.073435
LeftToeBase 1.482573 -0.000000 -0.000000
RightUpLeg -5.162133 -22.580633 -42.118610
RightLeg 9.380959 -0.000000 -0.000000
RightFoot 5.503084 -19.304646 2.708412
RightToeBase 8.013386 -0.000000 -0.000000
486
root 3.324769 13.288036 -9.170707 13.494632 15.736731 -19.960226
Spine 3.525273 -7.460229 -40.446224
Head 0.217362 -2.835755 -42.094344
LeftShoulder -6.919685 16.192731 18.839224
LeftArm 14.238359 -10.040122 -57.214899
LeftForeArm 34.194392 -0.000000 16.670045
LeftHand -34.581065 -0.000000 108.258091
LeftHandThumb1 -26.253704 0.000000 33.147579
RightShoulder -20.667569 26.640500 -56.176720
RightArm 7.362047 37.200333 8.013898
RightForeArm 37.846107 0.000000 21.426554
RightHand 6.901389 -0.000000 -13.583005
RightHandThumb1 -24.326973 -0.000000 -32.862282
LeftUpLeg -112.949152 46.413276 18.866880
LeftLeg 127.902129 -0.000000 -0.000000
LeftFoot -28.982958 -18.793647 -15.054866
LeftToeBase 1.478829 -0.000000 -0.000000
RightUpLeg -5.087046 -22.370556 -42.019230
RightLeg 9.388966 -0.000000 -0.000000
RightFoot 5.450278 -19.336348 2.572192
RightToeBase 7.912576 -0.000000 -0.000000
487
root 3.323166 13.292799 -9.152531 13.309256 15.690703 -20.082411
Spine 3.344304 -7.561780 -40.402144
Head 0.402502 -2.407423 -42.354479
LeftShoulder -7.038125 16.358369 18.869274
LeftArm 14.499516 -10.909210 -57.593211
LeftForeArm 35.108600 -0.000000 16.099992
LeftHand -34.410863 -0.000000 108.485389
LeftHandThumb1 -26.253704 0.000000 33.147579
RightShoulder -20.880767 26.790250 -56.413305
RightArm 8.331588 37.642631 8.157748
RightForeArm 37.759674 -0.000000 21.588330
RightHand 6.355035 0.000000 -13.799301
RightHandThumb1 -24.326973 -0.000000 -32.862282
LeftUpLeg -112.644112 46.471783 19.199430
LeftLeg 127.928900 -0.000000 -0.000000
LeftFoot -29.014629 -18.805746 -15.066885
LeftToeBase 1.472339 -0.000000 -0.000000
RightUpLeg -4.992967 -22.172715 -41.920935
RightLeg 9.391024 -0.000000 -0.000000
RightFoot 5.342809 -19.375574 2.610089
RightToeBase 7.934476 -0.000000 -0.000000
